<mxfile host="app.diagrams.net" modified="2021-06-17T22:31:31.895Z" agent="5.0 (Windows NT 10.0; Win64; x64) AppleWebKit/537.36 (KHTML, like Gecko) Chrome/90.0.4430.212 Safari/537.36 OPR/76.0.4017.177" etag="DHSKXuE64xdtY1DkuBFq" version="14.6.6" type="github">
  <diagram id="_VUslo6M-UNFZhv8Z7Ni" name="Page-1">
    <mxGraphModel dx="742" dy="448" grid="1" gridSize="10" guides="1" tooltips="1" connect="1" arrows="1" fold="1" page="1" pageScale="1" pageWidth="827" pageHeight="1169" math="0" shadow="0">
      <root>
        <mxCell id="0" />
        <mxCell id="1" parent="0" />
        <mxCell id="tJpwDejiZFOTBjmVzeWh-1" value="client" style="shape=umlActor;verticalLabelPosition=bottom;verticalAlign=top;html=1;outlineConnect=0;" vertex="1" parent="1">
          <mxGeometry x="110" y="270" width="30" height="60" as="geometry" />
        </mxCell>
        <mxCell id="tJpwDejiZFOTBjmVzeWh-2" value="chauffeur" style="shape=umlActor;verticalLabelPosition=bottom;verticalAlign=top;html=1;outlineConnect=0;" vertex="1" parent="1">
          <mxGeometry x="100" y="440" width="30" height="60" as="geometry" />
        </mxCell>
        <mxCell id="tJpwDejiZFOTBjmVzeWh-4" value="" style="whiteSpace=wrap;html=1;aspect=fixed;" vertex="1" parent="1">
          <mxGeometry x="278.5" y="185" width="400" height="400" as="geometry" />
        </mxCell>
        <mxCell id="tJpwDejiZFOTBjmVzeWh-7" value="&lt;font size=&quot;1&quot;&gt;&lt;b style=&quot;font-size: 16px&quot;&gt;MNCF&lt;/b&gt;&lt;/font&gt;" style="text;html=1;strokeColor=none;fillColor=none;align=center;verticalAlign=middle;whiteSpace=wrap;rounded=0;fontSize=17;" vertex="1" parent="1">
          <mxGeometry x="414" y="210" width="129" height="20" as="geometry" />
        </mxCell>
        <mxCell id="tJpwDejiZFOTBjmVzeWh-15" value="" style="endArrow=classic;html=1;fontSize=17;exitX=0.5;exitY=0.5;exitDx=0;exitDy=0;exitPerimeter=0;entryX=0;entryY=0.5;entryDx=0;entryDy=0;" edge="1" parent="1" source="tJpwDejiZFOTBjmVzeWh-1" target="tJpwDejiZFOTBjmVzeWh-38">
          <mxGeometry width="50" height="50" relative="1" as="geometry">
            <mxPoint x="140" y="340" as="sourcePoint" />
            <mxPoint x="200" y="360" as="targetPoint" />
          </mxGeometry>
        </mxCell>
        <mxCell id="tJpwDejiZFOTBjmVzeWh-17" value="" style="endArrow=classic;html=1;fontSize=17;entryX=0;entryY=0.5;entryDx=0;entryDy=0;" edge="1" parent="1" target="tJpwDejiZFOTBjmVzeWh-42">
          <mxGeometry width="50" height="50" relative="1" as="geometry">
            <mxPoint x="140" y="480" as="sourcePoint" />
            <mxPoint x="570" y="466.5625" as="targetPoint" />
          </mxGeometry>
        </mxCell>
        <mxCell id="tJpwDejiZFOTBjmVzeWh-23" value="" style="endArrow=classic;html=1;fontSize=17;entryX=0;entryY=0;entryDx=0;entryDy=23;entryPerimeter=0;exitX=0.5;exitY=0.5;exitDx=0;exitDy=0;exitPerimeter=0;" edge="1" parent="1" source="tJpwDejiZFOTBjmVzeWh-1">
          <mxGeometry width="50" height="50" relative="1" as="geometry">
            <mxPoint x="140" y="340" as="sourcePoint" />
            <mxPoint x="320" y="253" as="targetPoint" />
          </mxGeometry>
        </mxCell>
        <mxCell id="tJpwDejiZFOTBjmVzeWh-24" value="" style="endArrow=classic;html=1;fontSize=17;entryX=0;entryY=0.5;entryDx=0;entryDy=0;" edge="1" parent="1" target="tJpwDejiZFOTBjmVzeWh-43">
          <mxGeometry width="50" height="50" relative="1" as="geometry">
            <mxPoint x="140" y="480" as="sourcePoint" />
            <mxPoint x="375" y="562" as="targetPoint" />
          </mxGeometry>
        </mxCell>
        <mxCell id="tJpwDejiZFOTBjmVzeWh-26" value="" style="endArrow=classic;html=1;fontSize=17;exitX=0.5;exitY=0.5;exitDx=0;exitDy=0;entryX=0;entryY=0;entryDx=0;entryDy=0;exitPerimeter=0;" edge="1" parent="1" source="tJpwDejiZFOTBjmVzeWh-1" target="tJpwDejiZFOTBjmVzeWh-44">
          <mxGeometry width="50" height="50" relative="1" as="geometry">
            <mxPoint x="140" y="340" as="sourcePoint" />
            <mxPoint x="530" y="327" as="targetPoint" />
          </mxGeometry>
        </mxCell>
        <mxCell id="tJpwDejiZFOTBjmVzeWh-27" value="&lt;font style=&quot;font-size: 12px&quot;&gt;s&#39;authentifier&lt;/font&gt;" style="ellipse;whiteSpace=wrap;html=1;fontSize=17;" vertex="1" parent="1">
          <mxGeometry x="320" y="230" width="90" height="40" as="geometry" />
        </mxCell>
        <mxCell id="tJpwDejiZFOTBjmVzeWh-28" value="&lt;font style=&quot;font-size: 12px&quot;&gt;s&#39;inscrire&lt;/font&gt;" style="ellipse;whiteSpace=wrap;html=1;fontSize=17;" vertex="1" parent="1">
          <mxGeometry x="580" y="220" width="80" height="50" as="geometry" />
        </mxCell>
        <mxCell id="tJpwDejiZFOTBjmVzeWh-30" value="&lt;font style=&quot;font-size: 12px&quot;&gt;consulter météo&lt;/font&gt;" style="ellipse;whiteSpace=wrap;html=1;fontSize=17;" vertex="1" parent="1">
          <mxGeometry x="490" y="260" width="100" height="40" as="geometry" />
        </mxCell>
        <mxCell id="tJpwDejiZFOTBjmVzeWh-31" value="&lt;font style=&quot;font-size: 12px&quot;&gt;se localiser&lt;/font&gt;" style="ellipse;whiteSpace=wrap;html=1;fontSize=17;" vertex="1" parent="1">
          <mxGeometry x="570" y="290" width="100" height="40" as="geometry" />
        </mxCell>
        <mxCell id="tJpwDejiZFOTBjmVzeWh-32" value="&lt;font style=&quot;font-size: 12px&quot;&gt;s&#39;informer sur les lignes des BUS et horaires&lt;/font&gt;" style="ellipse;whiteSpace=wrap;html=1;fontSize=17;" vertex="1" parent="1">
          <mxGeometry x="510" y="340" width="140" height="50" as="geometry" />
        </mxCell>
        <mxCell id="tJpwDejiZFOTBjmVzeWh-33" value="&lt;font style=&quot;font-size: 12px&quot;&gt;abonnement Bus&lt;/font&gt;" style="ellipse;whiteSpace=wrap;html=1;fontSize=17;" vertex="1" parent="1">
          <mxGeometry x="375" y="350" width="105" height="40" as="geometry" />
        </mxCell>
        <mxCell id="tJpwDejiZFOTBjmVzeWh-34" value="&amp;lt;&amp;lt;include&amp;gt;&amp;gt;" style="html=1;verticalAlign=bottom;labelBackgroundColor=none;endArrow=open;endFill=0;dashed=1;fontSize=12;entryX=0.1;entryY=0.64;entryDx=0;entryDy=0;entryPerimeter=0;" edge="1" parent="1" target="tJpwDejiZFOTBjmVzeWh-28">
          <mxGeometry width="160" relative="1" as="geometry">
            <mxPoint x="410" y="250" as="sourcePoint" />
            <mxPoint x="510" y="250" as="targetPoint" />
          </mxGeometry>
        </mxCell>
        <mxCell id="tJpwDejiZFOTBjmVzeWh-38" value="commander taxi" style="ellipse;whiteSpace=wrap;html=1;fontSize=12;" vertex="1" parent="1">
          <mxGeometry x="330" y="390" width="100" height="40" as="geometry" />
        </mxCell>
        <mxCell id="tJpwDejiZFOTBjmVzeWh-39" value="&lt;font style=&quot;font-size: 12px&quot;&gt;s&#39;authentifier&lt;/font&gt;" style="ellipse;whiteSpace=wrap;html=1;fontSize=17;" vertex="1" parent="1">
          <mxGeometry x="470" y="440" width="90" height="40" as="geometry" />
        </mxCell>
        <mxCell id="tJpwDejiZFOTBjmVzeWh-40" value="&lt;font style=&quot;font-size: 12px&quot;&gt;s&#39;inscrire&lt;/font&gt;" style="ellipse;whiteSpace=wrap;html=1;fontSize=17;" vertex="1" parent="1">
          <mxGeometry x="590" y="410" width="80" height="50" as="geometry" />
        </mxCell>
        <mxCell id="tJpwDejiZFOTBjmVzeWh-41" value="&amp;lt;&amp;lt;include&amp;gt;&amp;gt;" style="html=1;verticalAlign=bottom;labelBackgroundColor=none;endArrow=open;endFill=0;dashed=1;fontSize=12;exitX=0.5;exitY=0;exitDx=0;exitDy=0;" edge="1" parent="1" source="tJpwDejiZFOTBjmVzeWh-39" target="tJpwDejiZFOTBjmVzeWh-40">
          <mxGeometry width="160" relative="1" as="geometry">
            <mxPoint x="530" y="450" as="sourcePoint" />
            <mxPoint x="590" y="441" as="targetPoint" />
          </mxGeometry>
        </mxCell>
        <mxCell id="tJpwDejiZFOTBjmVzeWh-42" value="localiser client" style="ellipse;whiteSpace=wrap;html=1;fontSize=12;" vertex="1" parent="1">
          <mxGeometry x="470" y="520" width="100" height="30" as="geometry" />
        </mxCell>
        <mxCell id="tJpwDejiZFOTBjmVzeWh-43" value="recevoir des notifications" style="ellipse;whiteSpace=wrap;html=1;fontSize=12;" vertex="1" parent="1">
          <mxGeometry x="320" y="450" width="120" height="60" as="geometry" />
        </mxCell>
        <mxCell id="tJpwDejiZFOTBjmVzeWh-44" value="choix de ville" style="ellipse;whiteSpace=wrap;html=1;fontSize=12;" vertex="1" parent="1">
          <mxGeometry x="310" y="290" width="120" height="40" as="geometry" />
        </mxCell>
        <mxCell id="tJpwDejiZFOTBjmVzeWh-46" value="&amp;lt;&amp;lt;extend&amp;gt;&amp;gt;" style="html=1;verticalAlign=bottom;labelBackgroundColor=none;endArrow=open;endFill=0;dashed=1;fontSize=12;entryX=0.08;entryY=0.65;entryDx=0;entryDy=0;entryPerimeter=0;" edge="1" parent="1" target="tJpwDejiZFOTBjmVzeWh-30">
          <mxGeometry x="-0.0375" width="160" relative="1" as="geometry">
            <mxPoint x="430" y="309.5" as="sourcePoint" />
            <mxPoint x="590" y="309.5" as="targetPoint" />
            <mxPoint as="offset" />
          </mxGeometry>
        </mxCell>
        <mxCell id="tJpwDejiZFOTBjmVzeWh-47" value="&amp;lt;&amp;lt;extend&amp;gt;&amp;gt;" style="html=1;verticalAlign=bottom;labelBackgroundColor=none;endArrow=open;endFill=0;dashed=1;fontSize=12;" edge="1" parent="1">
          <mxGeometry width="160" relative="1" as="geometry">
            <mxPoint x="433.5" y="310" as="sourcePoint" />
            <mxPoint x="570" y="310" as="targetPoint" />
          </mxGeometry>
        </mxCell>
        <mxCell id="tJpwDejiZFOTBjmVzeWh-48" value="&amp;lt;&amp;lt;extend&amp;gt;&amp;gt;" style="html=1;verticalAlign=bottom;labelBackgroundColor=none;endArrow=open;endFill=0;dashed=1;fontSize=12;entryX=0.005;entryY=0.307;entryDx=0;entryDy=0;entryPerimeter=0;" edge="1" parent="1" target="tJpwDejiZFOTBjmVzeWh-32">
          <mxGeometry width="160" relative="1" as="geometry">
            <mxPoint x="430" y="309.5" as="sourcePoint" />
            <mxPoint x="590" y="309.5" as="targetPoint" />
          </mxGeometry>
        </mxCell>
        <mxCell id="tJpwDejiZFOTBjmVzeWh-49" value="&amp;lt;&amp;lt;extend&amp;gt;&amp;gt;" style="html=1;verticalAlign=bottom;labelBackgroundColor=none;endArrow=open;endFill=0;dashed=1;fontSize=12;entryX=0;entryY=0;entryDx=0;entryDy=0;" edge="1" parent="1" target="tJpwDejiZFOTBjmVzeWh-33">
          <mxGeometry width="160" relative="1" as="geometry">
            <mxPoint x="363.5" y="329" as="sourcePoint" />
            <mxPoint x="523.5" y="329" as="targetPoint" />
          </mxGeometry>
        </mxCell>
        <mxCell id="tJpwDejiZFOTBjmVzeWh-51" value="&amp;lt;&amp;lt;include&amp;gt;&amp;gt;" style="html=1;verticalAlign=bottom;labelBackgroundColor=none;endArrow=open;endFill=0;dashed=1;fontSize=12;exitX=0.5;exitY=0;exitDx=0;exitDy=0;" edge="1" parent="1">
          <mxGeometry width="160" relative="1" as="geometry">
            <mxPoint x="430" y="463.27" as="sourcePoint" />
            <mxPoint x="470" y="460" as="targetPoint" />
          </mxGeometry>
        </mxCell>
      </root>
    </mxGraphModel>
  </diagram>
</mxfile>
